HIERARCHY
ROOT Hips
{
	OFFSET -0.001795 -0.223333 0.028219
	CHANNELS 6 Xposition Yposition Zposition Zrotation Yrotation Xrotation 
	JOINT LeftUpLeg
	{
		OFFSET 0.069520 -0.091406 -0.006815
		CHANNELS 3 Zrotation Yrotation Xrotation
		JOINT LeftLeg
		{
			OFFSET 0.034277 -0.375199 -0.004496
			CHANNELS 3 Zrotation Yrotation Xrotation
			JOINT LeftFoot
			{
				OFFSET -0.013596 -0.397961 -0.043693
				CHANNELS 3 Zrotation Yrotation Xrotation
				JOINT LeftToe
				{
					OFFSET 0.026358 -0.055791 0.119288
					CHANNELS 3 Zrotation Yrotation Xrotation
					End Site
					{
						OFFSET 0.000000 0.000000 0.000000
					}
				}
			}
		}
	}
	JOINT RightUpLeg
	{
		OFFSET -0.067670 -0.090522 -0.004320
		CHANNELS 3 Zrotation Yrotation Xrotation
		JOINT RightLeg
		{
			OFFSET -0.038290 -0.382569 -0.008850
			CHANNELS 3 Zrotation Yrotation Xrotation
			JOINT RightFoot
			{
				OFFSET 0.015774 -0.398415 -0.042312
				CHANNELS 3 Zrotation Yrotation Xrotation
				JOINT RightToe
				{
					OFFSET -0.025372 -0.048144 0.123348
					CHANNELS 3 Zrotation Yrotation Xrotation
					End Site
					{
						OFFSET 0.000000 0.000000 0.000000
					}
				}
			}
		}
	}
	JOINT Spine
	{
		OFFSET -0.002533 0.108963 -0.026696
		CHANNELS 3 Zrotation Yrotation Xrotation
		JOINT Spine1
		{
			OFFSET 0.005487 0.135180 0.001092
			CHANNELS 3 Zrotation Yrotation Xrotation
			JOINT Spine2
			{
				OFFSET 0.001457 0.052922 0.025425
				CHANNELS 3 Zrotation Yrotation Xrotation
				JOINT Neck
				{
					OFFSET -0.002778 0.213870 -0.042857
					CHANNELS 3 Zrotation Yrotation Xrotation
					JOINT Head
					{
						OFFSET 0.005152 0.064970 0.051349
						CHANNELS 3 Zrotation Yrotation Xrotation
						End Site
						{
							OFFSET 0.000000 0.000000 0.000000
						}
					}
				}
				JOINT LeftShoulder
				{
					OFFSET 0.078845 0.121749 -0.034090
					CHANNELS 3 Zrotation Yrotation Xrotation
					JOINT LeftArm
					{
						OFFSET 0.090977 0.030469 -0.008868
						CHANNELS 3 Zrotation Yrotation Xrotation
						JOINT LeftForeArm
						{
							OFFSET 0.259612 -0.012772 -0.027456
							CHANNELS 3 Zrotation Yrotation Xrotation
							JOINT LeftHand
							{
								OFFSET 0.249234 0.008986 -0.001171
								CHANNELS 3 Zrotation Yrotation Xrotation
								End Site
								{
									OFFSET 0.000000 0.000000 0.000000
								}
							}
						}
					}
				}
				JOINT RightShoulder
				{
					OFFSET -0.081759 0.118833 -0.038615
					CHANNELS 3 Zrotation Yrotation Xrotation
					JOINT RightArm
					{
						OFFSET -0.096012 0.032551 -0.009143
						CHANNELS 3 Zrotation Yrotation Xrotation
						JOINT RightForeArm
						{
							OFFSET -0.253742 -0.013329 -0.021401
							CHANNELS 3 Zrotation Yrotation Xrotation
							JOINT RightHand
							{
								OFFSET -0.255298 0.007772 -0.005559
								CHANNELS 3 Zrotation Yrotation Xrotation
								End Site
								{
									OFFSET 0.000000 0.000000 0.000000
								}
							}
						}
					}
				}
			}
		}
	}
}
MOTION
Frames: 8
Frame Time: 0.050000
0.003031 0.947369 -0.121481 0.340275 -3.302447 36.393930 8.912788 -0.257896 -50.517274 1.492916 -0.401416 5.560752 -10.723253 -7.589820 24.535293 0.000000 0.000000 0.000000 -2.975206 3.952578 -43.448460 -7.268354 0.368372 -2.621905 -0.411221 -9.481090 22.684683 0.000000 0.000000 0.000000 -2.152577 -0.241258 33.886947 3.683498 -1.203696 -5.541966 -12.774929 8.308372 5.948300 19.242317 -6.696101 -23.323834 0.000000 0.000000 0.000000 19.531435 -39.166871 10.428448 23.583692 -50.851791 -15.371651 37.372911 -1.466200 0.120058 0.000000 0.000000 0.000000 -24.609687 17.125990 3.876232 15.972170 64.280913 8.740996 -50.045931 13.004517 -2.746678 0.000000 0.000000 0.000000 
0.002461 0.947231 -0.119607 0.134006 -3.366529 36.270839 9.283968 -0.087321 -50.444775 1.306707 -0.387998 5.953142 -10.756517 -7.768161 24.326916 0.000000 0.000000 0.000000 -2.702240 4.021159 -43.171499 -7.158963 0.397226 -2.265510 -0.395455 -9.215697 21.585917 0.000000 0.000000 0.000000 -2.358470 -0.140034 33.848155 3.604967 -1.170897 -5.611958 -12.400395 8.570501 6.134843 19.465736 -6.912599 -23.043679 0.000000 0.000000 0.000000 19.710572 -38.213937 10.184739 23.209104 -51.091034 -15.353489 40.111877 -2.016859 -0.065170 0.000000 0.000000 0.000000 -24.385362 16.859001 3.809007 16.328975 64.488121 9.051797 -53.448598 13.890104 -3.217634 0.000000 0.000000 0.000000 
0.002355 0.946675 -0.117151 -0.111671 -3.339944 35.920144 9.668314 0.062918 -50.182762 0.947591 -0.347625 6.408334 -10.566690 -7.669811 24.006826 0.000000 0.000000 0.000000 -2.645977 4.011852 -42.854149 -6.776735 0.421889 -1.760048 -0.347251 -8.966283 20.892588 0.000000 0.000000 0.000000 -2.426276 -0.112502 33.938100 3.623238 -1.178406 -5.604238 -12.271410 9.041502 5.796579 19.633893 -7.199113 -22.258406 0.000000 0.000000 0.000000 18.559155 -38.410568 10.480429 22.101993 -50.668377 -14.790832 43.127796 -3.238258 -0.494436 0.000000 0.000000 0.000000 -23.338425 16.889721 3.913760 17.396584 64.400436 9.756375 -56.767699 15.035320 -3.801109 0.000000 0.000000 0.000000 
0.002764 0.946010 -0.114260 -0.371015 -3.327467 35.347463 9.743754 0.089537 -49.638602 0.838805 -0.334136 6.541210 -10.189207 -7.052213 24.148970 0.000000 0.000000 0.000000 -2.641058 3.969928 -42.316865 -6.322360 0.432326 -1.307842 -0.290473 -8.742104 20.374034 0.000000 0.000000 0.000000 -2.453183 -0.101605 34.170780 3.459565 -1.115622 -5.706769 -11.944245 9.781125 5.753150 19.558578 -7.402730 -21.415789 0.000000 0.000000 0.000000 17.884742 -38.292676 10.569765 21.259271 -50.997463 -14.675627 45.708094 -4.765210 -1.146431 0.000000 0.000000 0.000000 -22.709121 17.105950 3.960347 19.509839 64.474259 11.214246 -59.422548 15.175465 -3.906244 0.000000 0.000000 0.000000 
0.003456 0.945172 -0.111064 -0.453672 -3.133910 34.904771 9.826988 0.073786 -49.405208 0.625462 -0.314220 6.969842 -10.179914 -6.986089 24.209363 0.000000 0.000000 0.000000 -2.880512 3.848665 -42.003147 -5.901091 0.478527 -0.485954 -0.260164 -8.413466 19.502811 0.000000 0.000000 0.000000 -2.273157 -0.206885 34.046581 3.340312 -1.071139 -5.728966 -11.746305 10.174483 5.538860 19.663265 -7.539996 -21.074023 0.000000 0.000000 0.000000 16.421482 -38.249943 10.852226 19.681015 -51.271873 -14.144316 47.929840 -6.612336 -1.953690 0.000000 0.000000 0.000000 -21.837431 17.527622 4.148817 21.625675 64.852007 12.687947 -61.243492 14.976946 -3.823484 0.000000 0.000000 0.000000 
0.004105 0.944845 -0.107865 -0.391638 -3.033750 34.325284 9.737303 -0.004752 -48.831178 0.347537 -0.274917 7.177629 -9.997205 -6.758548 24.080528 0.000000 0.000000 0.000000 -3.154923 3.716391 -41.561542 -5.353583 0.528025 0.575686 -0.566725 -8.541672 18.133015 0.000000 0.000000 0.000000 -2.243675 -0.237601 34.248933 3.358981 -1.061385 -6.065139 -11.411472 10.693017 5.519331 19.757453 -7.413355 -21.587777 0.000000 0.000000 0.000000 15.304484 -37.937791 10.976342 18.133249 -51.906476 -13.760208 50.444021 -8.123618 -2.756134 0.000000 0.000000 0.000000 -21.028456 17.724100 4.259512 24.556217 65.291619 14.761259 -63.061747 15.182222 -3.967554 0.000000 0.000000 0.000000 
0.004474 0.944457 -0.104686 -0.354253 -2.761440 33.929158 9.642570 -0.108388 -48.618863 0.265086 -0.277712 7.679832 -9.971619 -6.778912 23.873606 0.000000 0.000000 0.000000 -3.377339 3.602231 -41.401007 -4.966145 0.591082 1.706277 -0.776202 -8.580167 17.109374 0.000000 0.000000 0.000000 -2.218969 -0.283155 33.969521 3.256939 -1.023439 -6.084873 -11.061527 10.862395 5.450230 19.452096 -7.142387 -21.907416 0.000000 0.000000 0.000000 14.308420 -37.587840 11.067965 17.245927 -52.533894 -13.598516 51.971672 -8.985114 -3.244080 0.000000 0.000000 0.000000 -20.665134 17.923417 4.330445 28.375327 66.088321 17.582367 -64.925757 14.481647 -3.663795 0.000000 0.000000 0.000000 
0.004542 0.944473 -0.101676 -0.254920 -2.447978 33.396676 9.476444 -0.254756 -48.252633 0.018975 -0.242387 7.846788 -9.751638 -6.150644 24.395320 0.000000 0.000000 0.000000 -3.548973 3.467967 -40.950934 -4.512700 0.604158 2.420455 -1.207992 -9.123943 16.482690 0.000000 0.000000 0.000000 -2.159287 -0.348874 33.750662 3.266933 -1.039450 -5.865556 -10.881328 11.179982 5.193161 19.587509 -7.161969 -21.985834 0.000000 0.000000 0.000000 13.621468 -37.455937 11.138883 15.766378 -52.942338 -13.122027 53.744768 -9.851635 -3.847443 0.000000 0.000000 0.000000 -19.545142 18.393047 4.601852 30.365429 66.029069 18.880105 -66.162486 14.379763 -3.583536 0.000000 0.000000 0.000000 
